inDegrees=no
num_controls=7
num_derivatives=13
num_iterations=157
num_multipliers=7
num_parameters=0
num_slacks=7
num_states=26
objective=5.785056
objective_accelerations=0.683144
objective_balance=0.015712
objective_effort=0.488409
objective_height=4.527411
objective_ligament=0.070380
solver_duration=1353.415977
status=Solve_Succeeded
success=true
DataType=double
version=3
OpenSimVersion=4.4-2022-07-23-0e9fedc
endheader
time	/jointset/ground_pelvis/pelvis_tilt/value	/jointset/ground_pelvis/pelvis_tx/value	/jointset/ground_pelvis/pelvis_ty/value	/jointset/hip_r/hip_flexion_r/value	/jointset/hip_r/hip_adduction_r/value	/jointset/hip_r/hip_rotation_r/value	/jointset/back/lumbar_extension/value	/jointset/patellofemoral_r/patellar_flexion_r/value	/jointset/knee_r/knee_flexion_r/value	/jointset/knee_r/knee_adduction_r/value	/jointset/knee_r/knee_rotation_r/value	/jointset/ankle_r/ankle_angle_r/value	/jointset/subtalar_r/subtalar_angle_r/value	/jointset/ground_pelvis/pelvis_tilt/speed	/jointset/ground_pelvis/pelvis_tx/speed	/jointset/ground_pelvis/pelvis_ty/speed	/jointset/hip_r/hip_flexion_r/speed	/jointset/hip_r/hip_adduction_r/speed	/jointset/hip_r/hip_rotation_r/speed	/jointset/back/lumbar_extension/speed	/jointset/patellofemoral_r/patellar_flexion_r/speed	/jointset/knee_r/knee_flexion_r/speed	/jointset/knee_r/knee_adduction_r/speed	/jointset/knee_r/knee_rotation_r/speed	/jointset/ankle_r/ankle_angle_r/speed	/jointset/subtalar_r/subtalar_angle_r/speed	/forceset/tau_hip_flexion_r	/forceset/tau_hip_adduction_r	/forceset/tau_hip_rotation_r	/forceset/tau_knee_flexion_r	/forceset/tau_ankle_angle_r	/forceset/tau_subtalar_angle_r	/forceset/tau_lumbar_extension	lambda_cid13_p0	lambda_cid14_p0	lambda_cid14_p1	lambda_cid14_p2	lambda_cid14_p3	lambda_cid14_p4	lambda_cid14_p5	/jointset/ground_pelvis/pelvis_tilt/accel	/jointset/ground_pelvis/pelvis_tx/accel	/jointset/ground_pelvis/pelvis_ty/accel	/jointset/hip_r/hip_flexion_r/accel	/jointset/hip_r/hip_adduction_r/accel	/jointset/hip_r/hip_rotation_r/accel	/jointset/back/lumbar_extension/accel	/jointset/patellofemoral_r/patellar_flexion_r/accel	/jointset/knee_r/knee_flexion_r/accel	/jointset/knee_r/knee_adduction_r/accel	/jointset/knee_r/knee_rotation_r/accel	/jointset/ankle_r/ankle_angle_r/accel	/jointset/subtalar_r/subtalar_angle_r/accel	gamma_cid13_p0	gamma_cid14_p0	gamma_cid14_p1	gamma_cid14_p2	gamma_cid14_p3	gamma_cid14_p4	gamma_cid14_p5
1.5	-0.09616283204133837	0.02370162198199318	0.8046346758902334	0.8646945322328985	-0.221724343068625	-0.1284976162971389	-0.6332054589180577	0.9822818819346982	0.9822818819347121	-0.06457215108360877	0.1745320634796217	0.3091392644751739	0.1464875286947963	0.5011768499251144	0.2323518041663428	0.5617557401257744	-2.156461104632674	0.03515500097541356	-0.2135692772447579	0.7997763881502445	-2.075890204251817	-2.075890204251837	0.4383107134888027	3.476234132502009e-05	-0.5263643226651308	-0.1600441597840413	-0.167696504075358	-0.0002050372447561635	0.01888403929962896	-0.3144833088091462	0.0221717318493496	0.002439897313817363	0.2185662724022863	-7.169807532226718	-34.58910334055488	-4.454815099378583	0.5132425144455922	-4.398094385810165	-628.2590858796489	66.92940322127791	0.2383100254649634	0.6463750453682209	-0.5555146656994767	-1.093522100605214	-0.19982127152312	-0.492714484238494	1.922724583887193	-1.405317968598861	-1.405317968598876	0.5492814145297676	-0.03665329269844295	-0.7293396810781914	-0.4508340325291689	1.480530278050758e-07	2.844841214547539e-08	-1.787107550499298e-06	5.748094755467375e-07	1.632390923741939e-07	2.705167354043992e-07	-1.19658582316577e-06
1.51	-0.09113941052544038	0.02605723534027014	0.8102233514265489	0.8430771781721996	-0.2213839229415094	-0.1306579817805025	-0.625113303182591	0.9614552556966237	0.9614552556966154	-0.06015989063499915	0.1745322450335342	0.303839680452397	0.1448631678426521	0.503427080150637	0.23874441543859	0.5558584415831741	-2.166724448481844	0.03291833825899568	-0.2185410527042555	0.8185413115012418	-2.089150734355147	-2.089150734355154	0.4440791898406467	9.005070814726275e-06	-0.533459800133842	-0.1647866224254377	-0.160013614619312	-0.001273688950808311	0.01867608945371312	-0.3102072504171619	0.0240401270572174	0.001626631399522675	0.2114982539727184	-8.178719223802288	-33.68813601050892	-4.529704157848493	0.3874740937014	-4.556784567985904	-622.8669475890582	66.3316366741645	0.2063384914724302	0.6317458978129064	-0.6249053399297833	-0.9499314020649585	-0.2370536026824215	-0.5046693280154043	1.836359094407154	-1.243814435847424	-1.243814435845489	0.5811192539596964	0.01585258486151682	-0.6856944696148985	-0.4797670739374991	1.831827621541511e-07	1.118877605856329e-07	-1.488756434145614e-06	1.237720195769926e-06	8.697388997131554e-08	3.260833381456043e-07	-9.87658087442313e-07
1.52	-0.0860958949132101	0.02847598315720154	0.8157494403991605	0.8213657524980126	-0.2210661624077532	-0.1328691170687044	-0.6168369016368735	0.9405045453765729	0.9405045453765688	-0.05569184772118314	0.1745324469205183	0.2984719331169637	0.1431926194252955	0.5051956691912184	0.2449786958972298	0.549238427384989	-2.175275427330701	0.03062308230332575	-0.2237232382121536	0.8366255502002857	-2.100707020644373	-2.100707020644368	0.4494672065304111	3.882896385563071e-05	-0.5399969851964453	-0.1692816728265381	-0.1523307251632612	-0.002342340656860857	0.01846813960792096	-0.3059311920251643	0.025908522265084	0.0008133654852223427	0.2044302355431552	-9.254027733136741	-32.78106653357306	-4.594533933999704	0.2498319785375797	-4.745455143482164	-617.4011579448775	65.80765358392371	0.1419817884766688	0.6147088826467838	-0.7000577968164425	-0.7510491005427664	-0.2115399193734961	-0.5347964939184819	1.786587653496538	-1.064469205778282	-1.064469205778291	0.4731894821138242	-0.02553705998835867	-0.6176811998565711	-0.4013515844698936	1.924721297169136e-07	1.537512237406172e-07	-1.231920720223798e-06	1.560008425288454e-06	3.812618194599297e-08	3.491107935664131e-07	-8.286903080344606e-07
1.53	-0.08103722265434009	0.03095614335898845	0.8212057398890009	0.7995777106122218	-0.2207714537752443	-0.1351326208833935	-0.6083831106574932	0.9194470139034906	0.9194470139035089	-0.05117179023593687	0.174532608686359	0.2930416326462521	0.1414786551001197	0.5064587469280273	0.2510125598694837	0.5419064015773835	-2.182031560545901	0.02830854231206515	-0.2289919108311217	0.8539958259403803	-2.110499480893621	-2.110499480893623	0.4544994459832436	-3.69990994819811e-06	-0.5459737498197157	-0.1734737408945637	-0.1447858522073766	-0.003329682711301284	0.01825970084068394	-0.3014940978107891	0.02718187317044985	-0.0001276446477154727	0.1974000841449513	-10.36081596845527	-32.09861907417249	-4.753635578502653	0.1266062558994577	-4.648090489531493	-612.1807799512924	65.12830043216063	0.1064801912330524	0.5916090368551498	-0.7669690466676058	-0.5926667896687446	-0.242774286399637	-0.5247848890966046	1.691724573940688	-0.891698389204551	-0.8916983892057131	0.5113983495611883	0.007073103204628188	-0.5742320662717502	-0.4224815587961881	1.743061075692189e-07	1.514403087801053e-07	-1.019195121385841e-06	1.520385258433282e-06	1.840956169682313e-08	3.375654049593014e-07	-7.228049822119373e-07
1.54	-0.07596831773311073	0.03349541897696594	0.8265852803059783	0.7777311531227494	-0.2205001631921276	-0.1374491878729105	-0.5997597215127767	0.8983005450369929	0.8983005450369913	-0.04660277892160986	0.1745324819444647	0.2875542529347654	0.1397239006660983	0.5072422016628344	0.2568017791353461	0.5338866128123676	-2.186978548067509	0.0259394724249027	-0.2343358731785089	0.8705451832674659	-2.118494499331132	-2.118494499331142	0.4592579723437993	-1.887261250680045e-05	-0.551412833351365	-0.1774396945956806	-0.1372409792514807	-0.00431702476571515	0.01805126207316693	-0.2970570035964436	0.02845522407582231	-0.001068654780604433	0.1903699327467565	-11.46795987742743	-31.41480388515768	-4.908421268644122	-0.001964422923814114	-4.567944118264688	-606.9481339172237	64.51539585634632	0.0460571880762912	0.5657799413685181	-0.8376103882985048	-0.3892199618243754	-0.2224458985538501	-0.5498544396022911	1.622403970894721	-0.7049808434309346	-0.7049808434309455	0.4184468636584913	-0.02006582573927997	-0.5101449815323508	-0.35612871108817	1.645150126508395e-07	1.404860830856842e-07	-9.9895976219387e-07	1.412103579899452e-06	2.197353197232026e-08	3.312535966648524e-07	-7.268868890106458e-07
1.55	-0.07089403127755559	0.03609131450563489	0.8318812669587359	0.7558442357659454	-0.2202527301041641	-0.1398200410154315	-0.5909750492119895	0.8770831480112717	0.877083148011263	-0.04198805550060104	0.1745325141283716	0.2820152770514839	0.1379308245715685	0.5075297970752244	0.2623311002231862	0.5252039216675158	-2.190093354504376	0.02354153888220626	-0.2398248346204493	0.8862401893890625	-2.124669915210398	-2.124669915210401	0.4636517420267554	1.354038524577816e-05	-0.5562830587848365	-0.181130773830797	-0.1296345274294923	-0.005642690060191437	0.0178997537913793	-0.2930533336177799	0.03001581388684548	-0.002034152983549602	0.1833200859716745	-12.57213310518784	-30.66439357167009	-5.064116021959387	-0.1281802741116355	-4.525483722522102	-602.0722187801861	64.01766020836199	0.007325678682450766	0.539588084833141	-0.8995517252754475	-0.2258623646818211	-0.2492422214765327	-0.5466719749238348	1.520685807644098	-0.5266062285476821	-0.526606228546674	0.4444255537365576	0.01331500103455267	-0.4605194618423711	-0.3689586633390756	1.643732904097139e-07	1.195732602413248e-07	-1.20050663563748e-06	1.224715355301086e-06	5.236079133058436e-08	3.309717830784712e-07	-8.57670172525114e-07
